<svg width="16" height="16" viewBox="0 0 16 16" fill="none" xmlns="http://www.w3.org/2000/svg">
<g clip-path="url(#clip0_102_69)">
<path fill-rule="evenodd" clip-rule="evenodd" d="M7.9999 3.4C5.51529 3.4 4.3325 4.77088 4.09433 5.24721C3.84734 5.74119 3.24667 5.94142 2.75269 5.69443C2.25871 5.44744 2.05849 4.84677 2.30548 4.35279C2.86731 3.22912 4.72451 1.4 7.9999 1.4C12.244 1.4 14.5999 4.74423 14.5999 8C14.5999 8.55229 14.1522 9 13.5999 9H3.49228C3.93862 11.3243 5.93494 12.6 7.9999 12.6C10.4133 12.6 11.6713 11.2211 11.9055 10.7528C12.1525 10.2588 12.7531 10.0586 13.2471 10.3056C13.7411 10.5526 13.9413 11.1532 13.6943 11.6472C13.1285 12.7789 11.1865 14.6 7.9999 14.6C4.74413 14.6 1.3999 12.2441 1.3999 8C1.3999 7.44772 1.84762 7 2.3999 7H12.4988C12.0996 5.0533 10.5305 3.4 7.9999 3.4Z" fill="#8B5CF6"/>
</g>
<defs>
<clipPath id="clip0_102_69">
<rect width="16" height="16" fill="white"/>
</clipPath>
</defs>
</svg>
